# xmcd CD database file
#
# Track frame offsets:
#	150
#	19769
#	46394
#	71406
#	105804
#
# Disc length: 1701 seconds
#
# Revision: 0
# Processed by: cddbd v1.5.2PL0 Copyright (c) Steve Scherf et al.
# Submitted via: CDex 1.70beta2
#
DISCID=3206a305
DTITLE=菊地成孔とぺぺ・トルメント・アスカラール - 野生の思考 (Disc2)
DYEAR=2006
DGENRE=Jazz
TTITLE0=組曲「ウィオラ・トリコロール」1)紫
TTITLE1=組曲「ウィオラ・トリコロール」2)赤
TTITLE2=組曲「ウィオラ・トリコロール」3)金 アルトサクソフォンとハープのデュエット(菊地成孔のために)
TTITLE3=プラザ・レアル
TTITLE4=ファム・ファタール～妖婦
EXTD=YEAR: 2006
EXTT0=
EXTT1=
EXTT2=
EXTT3=
EXTT4=
PLAYORDER=
